<svg width="20" height="20" viewBox="0 0 20 20" fill="none" xmlns="http://www.w3.org/2000/svg">
<path d="M13.5531 7.72879L5.42586 15.879C5.24271 16.0621 5.02507 16.1537 4.77293 16.1537C4.52079 16.1537 4.30346 16.0621 4.12092 15.879C3.93777 15.6958 3.84619 15.4782 3.84619 15.226C3.84619 14.9739 3.93777 14.7566 4.12092 14.574L12.2711 6.44674H5.31139C5.05193 6.44674 4.83429 6.35883 4.65846 6.183C4.48264 6.00718 4.39503 5.78984 4.39564 5.53099C4.39564 5.27153 4.48355 5.05388 4.65938 4.87806C4.8352 4.70223 5.05254 4.61463 5.31139 4.61524H14.4689C14.7284 4.61524 14.946 4.70315 15.1218 4.87897C15.2977 5.0548 15.3853 5.27214 15.3847 5.53099V14.6885C15.3847 14.948 15.2967 15.1656 15.1209 15.3414C14.9451 15.5172 14.7278 15.6049 14.4689 15.6042C14.2094 15.6042 13.9918 15.5163 13.816 15.3405C13.6401 15.1647 13.5525 14.9473 13.5531 14.6885V7.72879Z" fill="white"/>
</svg>
