<svg width="10" height="10" viewBox="0 0 10 10" fill="none" xmlns="http://www.w3.org/2000/svg">
<path d="M4.9987 7.91537C4.88064 7.91537 4.78162 7.87537 4.70162 7.79537C4.62162 7.71537 4.58175 7.61648 4.58203 7.4987V5.41537H2.4987C2.38064 5.41537 2.28162 5.37537 2.20162 5.29537C2.12162 5.21537 2.08175 5.11648 2.08203 4.9987C2.08203 4.88064 2.12203 4.78162 2.20203 4.70162C2.28203 4.62162 2.38092 4.58175 2.4987 4.58203H4.58203V2.4987C4.58203 2.38064 4.62203 2.28162 4.70203 2.20162C4.78203 2.12162 4.88092 2.08175 4.9987 2.08203C5.11675 2.08203 5.21578 2.12203 5.29578 2.20203C5.37578 2.28203 5.41564 2.38092 5.41537 2.4987V4.58203H7.4987C7.61676 4.58203 7.71578 4.62203 7.79578 4.70203C7.87578 4.78203 7.91564 4.88092 7.91537 4.9987C7.91537 5.11675 7.87537 5.21578 7.79537 5.29578C7.71537 5.37578 7.61648 5.41564 7.4987 5.41537H5.41537V7.4987C5.41537 7.61676 5.37537 7.71578 5.29537 7.79578C5.21537 7.87578 5.11648 7.91564 4.9987 7.91537Z" fill="#3D869B"/>
</svg>
