<svg width="40" height="40" viewBox="0 0 40 40" fill="none" xmlns="http://www.w3.org/2000/svg">
<rect width="40" height="40" rx="5" fill="#DFEFFF" fill-opacity="0.75"/>
<path d="M29.5088 11.4871L28.515 10.4934C28.4775 10.4559 28.4306 10.4395 28.3814 10.4395C28.3322 10.4395 28.2853 10.4582 28.2478 10.4934L26.4642 12.277C25.6889 11.7516 24.7735 11.4715 23.8369 11.473C22.6369 11.473 21.4369 11.9301 20.5205 12.8465L18.1322 15.2348C18.0973 15.27 18.0777 15.3176 18.0777 15.3672C18.0777 15.4168 18.0973 15.4644 18.1322 15.4996L24.5002 21.8676C24.5377 21.9051 24.5845 21.9215 24.6338 21.9215C24.6806 21.9215 24.7299 21.9027 24.7674 21.8676L27.1556 19.4793C28.7705 17.8621 28.9603 15.3613 27.7252 13.5379L29.5088 11.7543C29.5814 11.6793 29.5814 11.5598 29.5088 11.4871ZM26.026 18.352L24.6338 19.7441L20.2556 15.366L21.6478 13.9738C22.2314 13.3902 23.0095 13.0668 23.8369 13.0668C24.6642 13.0668 25.44 13.3879 26.026 13.9738C26.6095 14.5574 26.933 15.3355 26.933 16.1629C26.933 16.9902 26.6095 17.766 26.026 18.352ZM21.5681 20.8129C21.5329 20.778 21.4853 20.7584 21.4357 20.7584C21.3861 20.7584 21.3385 20.778 21.3033 20.8129L19.7424 22.3738L17.626 20.2574L19.1892 18.6941C19.2619 18.6215 19.2619 18.502 19.1892 18.4293L18.3361 17.5762C18.3009 17.5413 18.2533 17.5217 18.2037 17.5217C18.1541 17.5217 18.1065 17.5413 18.0713 17.5762L16.508 19.1395L15.5002 18.1316C15.4827 18.1141 15.4618 18.1003 15.4389 18.0911C15.4159 18.0818 15.3913 18.0773 15.3666 18.0777C15.3197 18.0777 15.2705 18.0965 15.233 18.1316L12.847 20.5199C11.2322 22.1371 11.0424 24.6379 12.2775 26.4613L10.4939 28.2449C10.459 28.2802 10.4395 28.3278 10.4395 28.3773C10.4395 28.4269 10.459 28.4745 10.4939 28.5098L11.4877 29.5035C11.5252 29.541 11.572 29.5574 11.6213 29.5574C11.6705 29.5574 11.7174 29.5387 11.7549 29.5035L13.5385 27.7199C14.3283 28.2566 15.247 28.5238 16.1658 28.5238C17.3658 28.5238 18.5658 28.0668 19.4822 27.1504L21.8705 24.7621C21.9431 24.6895 21.9431 24.5699 21.8705 24.4973L20.8627 23.4895L22.426 21.9262C22.4986 21.8535 22.4986 21.734 22.426 21.6613L21.5681 20.8129ZM18.3525 26.0254C18.0657 26.3137 17.7245 26.5423 17.3488 26.698C16.973 26.8537 16.5702 26.9334 16.1635 26.9324C15.3361 26.9324 14.5603 26.6113 13.9744 26.0254C13.6861 25.7385 13.4575 25.3974 13.3018 25.0216C13.1461 24.6459 13.0664 24.243 13.0674 23.8363C13.0674 23.009 13.3885 22.2332 13.9744 21.6473L15.3666 20.2551L19.7447 24.6332L18.3525 26.0254Z" fill="black"/>
</svg>
