<svg width="40" height="40" viewBox="0 0 40 40" fill="none" xmlns="http://www.w3.org/2000/svg">
<rect width="40" height="40" rx="5" fill="#DFEFFF" fill-opacity="0.75"/>
<g clip-path="url(#clip0_1427_698)">
<path fill-rule="evenodd" clip-rule="evenodd" d="M25.814 8.24749C25.8488 8.16328 25.913 8.09461 25.9947 8.05431C26.0764 8.01401 26.17 8.00483 26.258 8.02849L27.791 8.44699C27.8788 8.47124 27.9548 8.52663 28.0048 8.60282C28.0547 8.67901 28.0753 8.77078 28.0625 8.86099L27.872 10.2005C28.6985 10.676 29.3645 11.3615 29.8205 12.1655L31.163 11.9855C31.2538 11.9734 31.3459 11.9949 31.4218 12.0461C31.4978 12.0972 31.5525 12.1743 31.5755 12.263L31.9805 13.799C32.0034 13.8875 31.9931 13.9813 31.9517 14.0628C31.9103 14.1443 31.8405 14.2078 31.7555 14.2415L30.5015 14.7455C30.5023 15.685 30.2511 16.6076 29.774 17.417L30.599 18.4895C30.6547 18.5619 30.6821 18.6521 30.676 18.7432C30.67 18.8344 30.6308 18.9202 30.566 18.9845L29.4395 20.102C29.3748 20.1664 29.2888 20.205 29.1977 20.2105C29.1065 20.216 29.0165 20.1881 28.9445 20.132L27.878 19.295C27.0652 19.7654 26.141 20.0088 25.202 20L24.686 21.2525C24.6512 21.3367 24.587 21.4054 24.5053 21.4457C24.4236 21.486 24.33 21.4952 24.242 21.4715L22.709 21.0545C22.6206 21.0305 22.544 20.975 22.4937 20.8985C22.4435 20.8219 22.4229 20.7296 22.436 20.639L22.628 19.2995C21.8143 18.8308 21.1413 18.1521 20.6795 17.3345L19.337 17.5145C19.2462 17.5266 19.1541 17.505 19.0782 17.4539C19.0022 17.4028 18.9475 17.3256 18.9245 17.237L18.5195 15.701C18.4966 15.6125 18.5069 15.5187 18.5483 15.4372C18.5897 15.3557 18.6595 15.2922 18.7445 15.2585L19.9985 14.7545C19.9979 13.815 20.2491 12.8925 20.726 12.083L19.901 11.0105C19.8453 10.9381 19.8179 10.8479 19.8239 10.7568C19.83 10.6656 19.8692 10.5798 19.934 10.5155L21.0605 9.39799C21.1252 9.33359 21.2112 9.29501 21.3023 9.28949C21.3935 9.28397 21.4835 9.31188 21.5555 9.36799L22.622 10.205C23.4348 9.73463 24.359 9.49115 25.298 9.49999L25.814 8.24749ZM28.145 15.5375C28.0416 15.9177 27.8643 16.2738 27.6233 16.5854C27.3822 16.8971 27.0822 17.1582 26.7402 17.3539C26.3983 17.5496 26.0211 17.676 25.6303 17.726C25.2395 17.7759 24.8427 17.7484 24.4625 17.645C24.0823 17.5416 23.7262 17.3643 23.4146 17.1233C23.1029 16.8822 22.8418 16.5822 22.6461 16.2402C22.2508 15.5496 22.1461 14.7303 22.355 13.9625C22.5639 13.1947 23.0692 12.5413 23.7598 12.1461C24.4504 11.7508 25.2697 11.6461 26.0375 11.855C26.8053 12.0639 27.4587 12.5692 27.8539 13.2598C28.2492 13.9504 28.3539 14.7697 28.145 15.5375ZM16.6655 17.33C16.6545 17.2393 16.6108 17.1557 16.5426 17.095C16.4744 17.0342 16.3864 17.0004 16.295 17H14.7065C14.6151 17 14.5269 17.0334 14.4584 17.0939C14.3899 17.1544 14.3458 17.2378 14.3345 17.3285L14.1695 18.6485C13.5081 18.7981 12.8771 19.0593 12.3035 19.421L11.2535 18.605C11.1815 18.5489 11.0915 18.521 11.0003 18.5265C10.9092 18.532 10.8232 18.5706 10.7585 18.635L9.635 19.7585C9.5706 19.8232 9.53202 19.9092 9.5265 20.0003C9.52097 20.0915 9.54889 20.1815 9.605 20.2535L10.421 21.3035C10.0593 21.8771 9.79808 22.5081 9.6485 23.1695L8.3285 23.3345C8.23808 23.3458 8.15486 23.3896 8.0944 23.4578C8.03395 23.526 8.00039 23.6139 8 23.705V25.292C8.00003 25.3834 8.03342 25.4716 8.09391 25.5401C8.1544 25.6086 8.23782 25.6527 8.3285 25.664L9.6485 25.829C9.8 26.501 10.0655 27.1295 10.421 27.695L9.605 28.745C9.54889 28.817 9.52097 28.907 9.5265 28.9982C9.53202 29.0893 9.5706 29.1753 9.635 29.24L10.7585 30.3635C10.8232 30.4279 10.9092 30.4665 11.0003 30.472C11.0915 30.4775 11.1815 30.4496 11.2535 30.3935L12.3035 29.5775C12.869 29.933 13.4975 30.1985 14.1695 30.35L14.3345 31.67C14.3455 31.7607 14.3892 31.8443 14.4574 31.905C14.5256 31.9658 14.6136 31.9996 14.705 32H16.292C16.3834 32 16.4716 31.9666 16.5401 31.9061C16.6086 31.8456 16.6527 31.7622 16.664 31.6715L16.829 30.3515C17.4904 30.202 18.1215 29.9408 18.695 29.579L19.745 30.395C19.817 30.4511 19.907 30.479 19.9982 30.4735C20.0893 30.468 20.1753 30.4294 20.24 30.365L21.3635 29.2415C21.4279 29.1768 21.4665 29.0908 21.472 28.9997C21.4775 28.9085 21.4496 28.8185 21.3935 28.7465L20.5775 27.6965C20.933 27.131 21.1985 26.5025 21.35 25.8305L22.67 25.6655C22.7607 25.6545 22.8443 25.6108 22.905 25.5426C22.9658 25.4744 22.9996 25.3863 23 25.295V23.708C23 23.6166 22.9666 23.5284 22.9061 23.4599C22.8456 23.3914 22.7622 23.3473 22.6715 23.336L21.3515 23.171C21.2019 22.5096 20.9407 21.8786 20.579 21.305L21.395 20.255C21.4511 20.183 21.479 20.093 21.4735 20.0018C21.468 19.9107 21.4294 19.8247 21.365 19.76L20.24 18.635C20.1753 18.5706 20.0893 18.532 19.9982 18.5265C19.907 18.521 19.817 18.5489 19.745 18.605L18.695 19.421C18.1218 19.06 17.4913 18.7993 16.8305 18.65L16.6655 17.33ZM19.25 24.5C19.25 25.4946 18.8549 26.4484 18.1516 27.1516C17.4484 27.8549 16.4946 28.25 15.5 28.25C14.5054 28.25 13.5516 27.8549 12.8483 27.1516C12.1451 26.4484 11.75 25.4946 11.75 24.5C11.75 23.5054 12.1451 22.5516 12.8483 21.8483C13.5516 21.1451 14.5054 20.75 15.5 20.75C16.4946 20.75 17.4484 21.1451 18.1516 21.8483C18.8549 22.5516 19.25 23.5054 19.25 24.5Z" fill="black"/>
</g>
<defs>
<clipPath id="clip0_1427_698">
<rect width="24" height="24" fill="white" transform="translate(8 8)"/>
</clipPath>
</defs>
</svg>
