<svg width="40" height="40" viewBox="0 0 40 40" fill="none" xmlns="http://www.w3.org/2000/svg">
<rect width="40" height="40" rx="5" fill="#DFEFFF" fill-opacity="0.75"/>
<path d="M20 30C25.5228 30 30 25.5228 30 20C30 14.4772 25.5228 10 20 10C14.4772 10 10 14.4772 10 20C10 25.5228 14.4772 30 20 30Z" stroke="black" stroke-width="1.6" stroke-linecap="round" stroke-linejoin="round"/>
<path d="M18 17.625C18 17.1058 18.1173 16.5983 18.3371 16.1666C18.5568 15.735 18.8692 15.3985 19.2346 15.1998C19.6001 15.0011 20.0022 14.9492 20.3902 15.0504C20.7781 15.1517 21.1345 15.4017 21.4142 15.7688C21.6939 16.136 21.8844 16.6037 21.9616 17.1129C22.0387 17.6221 21.9991 18.1499 21.8478 18.6295C21.6964 19.1092 21.44 19.5192 21.1111 19.8076C20.7822 20.096 20.3956 20.25 20 20.25V22" stroke="black" stroke-width="1.6" stroke-linecap="round" stroke-linejoin="round"/>
<path d="M20 24C19.8022 24 19.6089 24.0586 19.4444 24.1685C19.28 24.2784 19.1518 24.4346 19.0761 24.6173C19.0004 24.8 18.9806 25.0011 19.0192 25.1951C19.0578 25.3891 19.153 25.5673 19.2929 25.7071C19.4327 25.847 19.6109 25.9422 19.8049 25.9808C19.9989 26.0194 20.2 25.9996 20.3827 25.9239C20.5654 25.8482 20.7216 25.72 20.8315 25.5556C20.9414 25.3911 21 25.1978 21 25C20.9965 24.7359 20.8901 24.4835 20.7033 24.2967C20.5165 24.1099 20.2641 24.0035 20 24Z" fill="black"/>
</svg>
