<svg width="16" height="16" viewBox="0 0 16 16" fill="none" xmlns="http://www.w3.org/2000/svg">
<g clip-path="url(#clip0_122_1691)">
<path d="M1.69172 7.29494C2.10051 7.29982 2.46177 7.4314 2.76599 7.7092C3.74044 8.61081 4.70539 9.51243 5.67984 10.414C5.93177 10.648 6.10765 10.6431 6.33106 10.3799C7.55744 8.96171 8.78382 7.5435 10.0102 6.12041C11.1653 4.78017 12.3204 3.44481 13.4754 2.10457C13.9841 1.51486 14.4974 0.920285 15.006 0.330581C15.0488 0.281845 15.0916 0.228235 15.1391 0.184373C15.3435 -0.030065 15.605 -0.0593066 15.8094 0.106396C16.0233 0.276971 16.0613 0.545019 15.9092 0.803319C14.4499 3.21575 12.9858 5.62817 11.5265 8.03573C10.0958 10.3945 8.66974 12.7534 7.23896 15.1171C6.89671 15.6873 6.41662 16.0187 5.74639 16.004C5.31382 15.9943 4.94781 15.8189 4.66736 15.4874C4.24431 14.9806 3.83551 14.4591 3.42196 13.9376C2.43325 12.6949 1.45405 11.4424 0.446326 10.2142C-0.385522 9.20052 0.0232721 7.86028 1.031 7.4314C1.23539 7.33393 1.43504 7.29494 1.69172 7.29494Z" fill="#3C3C3C"/>
</g>
<defs>
<clipPath id="clip0_122_1691">
<rect width="16" height="16" fill="white"/>
</clipPath>
</defs>
</svg>
