<svg width="5" height="8" viewBox="0 0 5 8" fill="none" xmlns="http://www.w3.org/2000/svg">
<path d="M3.86719 7.53516L0.800521 4.46849C0.733854 4.40182 0.686743 4.3296 0.659187 4.25182C0.631632 4.17405 0.617632 4.09071 0.617188 4.00182C0.617188 3.91293 0.631187 3.8296 0.659187 3.75182C0.687187 3.67405 0.734298 3.60182 0.800521 3.53516L3.86719 0.468489C3.98941 0.346267 4.14497 0.285156 4.33385 0.285156C4.52274 0.285156 4.6783 0.346267 4.80052 0.468489C4.92274 0.590712 4.98385 0.746267 4.98385 0.935156C4.98385 1.12405 4.92274 1.2796 4.80052 1.40182L2.20052 4.00182L4.80052 6.60182C4.92274 6.72404 4.98385 6.8796 4.98385 7.06849C4.98385 7.25738 4.92274 7.41293 4.80052 7.53516C4.6783 7.65738 4.52274 7.71849 4.33385 7.71849C4.14497 7.71849 3.98941 7.65738 3.86719 7.53516Z" fill="#005BB1"/>
</svg>
