<svg width="15" height="14" viewBox="0 0 15 14" fill="none" xmlns="http://www.w3.org/2000/svg">
<path fill-rule="evenodd" clip-rule="evenodd" d="M2.24441 7.82245C2.67922 6.14257 2.65074 4.52484 2.70285 2.82091C2.71298 2.48814 2.43787 2.21148 2.08872 2.20146C1.73935 2.19143 1.44778 2.45405 1.43745 2.78682C1.38808 4.40255 1.42796 5.94009 1.0153 7.53577C0.931757 7.85852 1.13957 8.18527 1.47881 8.26345C1.81784 8.34364 2.16108 8.14519 2.24441 7.82245Z" fill="#6358B0"/>
<path fill-rule="evenodd" clip-rule="evenodd" d="M5.94413 11.0769C8.89391 8.51496 11.6732 5.21936 13.6158 1.89168C13.7853 1.60101 13.6749 1.23415 13.3694 1.07378C13.0639 0.913405 12.6783 1.01766 12.5089 1.30833C10.6304 4.52576 7.94245 7.71312 5.09013 10.1888C4.83233 10.4134 4.81439 10.7942 5.05005 11.0388C5.2857 11.2834 5.68633 11.3014 5.94413 11.0769Z" fill="#6358B0"/>
<path fill-rule="evenodd" clip-rule="evenodd" d="M6.68891 13.8768C9.38679 14.2998 12.1676 13.5781 14.6207 12.5578C14.9408 12.4235 15.0868 12.0686 14.9469 11.7659C14.8068 11.4612 14.4332 11.3229 14.1131 11.4552C11.879 12.3854 9.35219 13.075 6.89502 12.6901C6.5503 12.636 6.22435 12.8585 6.1676 13.1852C6.11064 13.512 6.34439 13.8227 6.68891 13.8768Z" fill="#6358B0"/>
</svg>
