<svg width="40" height="40" viewBox="0 0 40 40" fill="none" xmlns="http://www.w3.org/2000/svg">
<rect width="40" height="40" rx="5" fill="#DFEFFF" fill-opacity="0.75"/>
<path d="M17.8752 16.1252L15.3752 13.6252L18.5752 10.4252C18.7752 10.2252 19.0002 10.0752 19.2502 9.9752C19.5002 9.8752 19.7502 9.8252 20.0002 9.8252C20.2502 9.8252 20.5002 9.8752 20.7502 9.9752C21.0002 10.0752 21.2252 10.2252 21.4252 10.4252L24.6252 13.6252L22.1252 16.1252L20.0002 14.0002L17.8752 16.1252ZM13.6252 24.6252L10.4252 21.4252C10.2252 21.2252 10.0752 21.0002 9.9752 20.7502C9.8752 20.5002 9.8252 20.2502 9.8252 20.0002C9.8252 19.7502 9.8752 19.5002 9.9752 19.2502C10.0752 19.0002 10.2252 18.7752 10.4252 18.5752L13.6252 15.3752L16.1252 17.8752L14.0002 20.0002L16.1252 22.1252L13.6252 24.6252ZM26.3752 24.6252L23.8752 22.1252L26.0002 20.0002L23.8752 17.8752L26.3752 15.3752L29.5752 18.5752C29.7752 18.7752 29.9252 19.0002 30.0252 19.2502C30.1252 19.5002 30.1752 19.7502 30.1752 20.0002C30.1752 20.2502 30.1252 20.5002 30.0252 20.7502C29.9252 21.0002 29.7752 21.2252 29.5752 21.4252L26.3752 24.6252ZM20.0002 30.1752C19.7502 30.1752 19.5002 30.1252 19.2502 30.0252C19.0002 29.9252 18.7752 29.7752 18.5752 29.5752L15.3752 26.3752L17.8752 23.8752L20.0002 26.0002L22.1252 23.8752L24.6252 26.3752L21.4252 29.5752C21.2252 29.7752 21.0002 29.9252 20.7502 30.0252C20.5002 30.1252 20.2502 30.1752 20.0002 30.1752ZM21.4252 20.0002C21.4252 20.3835 21.2835 20.7169 21.0002 21.0002C20.7169 21.2835 20.3835 21.4252 20.0002 21.4252C19.6169 21.4252 19.2835 21.2835 19.0002 21.0002C18.7169 20.7169 18.5752 20.3835 18.5752 20.0002C18.5752 19.6169 18.7169 19.2835 19.0002 19.0002C19.2835 18.7169 19.6169 18.5752 20.0002 18.5752C20.3835 18.5752 20.7169 18.7169 21.0002 19.0002C21.2835 19.2835 21.4252 19.6169 21.4252 20.0002Z" fill="black"/>
</svg>
