<svg width="28" height="28" viewBox="0 0 28 28" fill="none" xmlns="http://www.w3.org/2000/svg">
<path d="M19.292 28V17.164H22.9211L23.464 12.9516H19.292V10.2636C19.292 9.044 19.6311 8.21178 21.3796 8.21178H23.6102V4.44422C22.5304 4.32965 21.445 4.27408 20.3591 4.27778C17.1438 4.27778 14.9427 6.24089 14.9427 9.84667V12.9516H11.3058V17.164H14.9427V28H1.55556C1.143 28 0.747335 27.8361 0.455612 27.5444C0.163888 27.2527 0 26.857 0 26.4444V1.55556C0 1.143 0.163888 0.747335 0.455612 0.455612C0.747335 0.163888 1.143 0 1.55556 0H26.4444C26.857 0 27.2527 0.163888 27.5444 0.455612C27.8361 0.747335 28 1.143 28 1.55556V26.4444C28 26.857 27.8361 27.2527 27.5444 27.5444C27.2527 27.8361 26.857 28 26.4444 28H19.292Z" fill="#4D4D4D"/>
</svg>
