<svg width="28" height="28" viewBox="0 0 28 28" fill="none" xmlns="http://www.w3.org/2000/svg">
<path fill-rule="evenodd" clip-rule="evenodd" d="M6.03457 0.439385C11.3287 -0.146462 16.6714 -0.146462 21.9655 0.439385C24.8577 0.761731 27.1895 3.03487 27.5291 5.93294C28.157 11.2922 28.157 16.7062 27.5291 22.0654C27.1895 24.9635 24.8577 27.2366 21.967 27.5605C16.6724 28.1465 11.3292 28.1465 6.03457 27.5605C3.14233 27.2366 0.810565 24.9635 0.470928 22.0669C-0.156976 16.7072 -0.156976 11.2927 0.470928 5.93294C0.810565 3.03487 3.14233 0.761731 6.03457 0.439385ZM21.6152 4.8762C21.2113 4.8762 20.8239 5.03639 20.5383 5.32154C20.2526 5.60669 20.0922 5.99343 20.0922 6.39669C20.0922 6.79995 20.2526 7.1867 20.5383 7.47185C20.8239 7.757 21.2113 7.91719 21.6152 7.91719C22.0191 7.91719 22.4065 7.757 22.6922 7.47185C22.9778 7.1867 23.1382 6.79995 23.1382 6.39669C23.1382 5.99343 22.9778 5.60669 22.6922 5.32154C22.4065 5.03639 22.0191 4.8762 21.6152 4.8762ZM6.76563 13.9992C6.76563 12.0837 7.52782 10.2467 8.88453 8.8922C10.2413 7.53774 12.0813 6.77682 14 6.77682C15.9187 6.77682 17.7588 7.53774 19.1155 8.8922C20.4722 10.2467 21.2344 12.0837 21.2344 13.9992C21.2344 15.9147 20.4722 17.7517 19.1155 19.1062C17.7588 20.4606 15.9187 21.2215 14 21.2215C12.0813 21.2215 10.2413 20.4606 8.88453 19.1062C7.52782 17.7517 6.76563 15.9147 6.76563 13.9992Z" fill="#4D4D4D"/>
</svg>
