<svg width="5" height="8" viewBox="0 0 5 8" fill="none" xmlns="http://www.w3.org/2000/svg">
<path d="M0.800521 7.53516C0.678298 7.41293 0.617188 7.25738 0.617188 7.06849C0.617188 6.8796 0.678298 6.72404 0.800521 6.60182L3.40052 4.00182L0.800521 1.40182C0.678298 1.2796 0.617188 1.12405 0.617188 0.935156C0.617188 0.746267 0.678298 0.590712 0.800521 0.468489C0.922743 0.346267 1.0783 0.285156 1.26719 0.285156C1.45608 0.285156 1.61163 0.346267 1.73385 0.468489L4.80052 3.53516C4.86719 3.60182 4.91452 3.67405 4.94252 3.75182C4.97052 3.8296 4.9843 3.91293 4.98385 4.00182C4.98385 4.09071 4.96985 4.17405 4.94185 4.25182C4.91385 4.3296 4.86674 4.40182 4.80052 4.46849L1.73385 7.53516C1.61163 7.65738 1.45608 7.71849 1.26719 7.71849C1.0783 7.71849 0.922743 7.65738 0.800521 7.53516Z" fill="white"/>
</svg>
